<?xml version="1.0" standalone="no"?>
<!DOCTYPE svg PUBLIC "-//W3C//DTD SVG 20010904//EN"
 "http://www.w3.org/TR/2001/REC-SVG-20010904/DTD/svg10.dtd">
<svg version="1.0" xmlns="http://www.w3.org/2000/svg"
 width="950.000000pt" height="949.000000pt" viewBox="0 0 950.000000 949.000000"
 preserveAspectRatio="xMidYMid meet">

<g transform="translate(0.000000,949.000000) scale(0.100000,-0.100000)"
fill="#000000" stroke="none">
<path d="M4595 9461 c-51 -23 -111 -89 -124 -138 -7 -24 -11 -192 -11 -456 0
-460 0 -460 63 -525 73 -77 187 -99 273 -54 52 27 107 90 122 141 8 26 12 167
12 452 l0 414 -24 50 c-43 92 -112 135 -213 135 -34 0 -74 -8 -98 -19z"/>
<path d="M6885 8890 c-56 -14 -83 -29 -117 -63 -31 -31 -404 -677 -427 -740
-6 -16 -11 -53 -11 -83 0 -153 147 -263 295 -219 30 8 71 29 90 46 36 32 416
687 443 764 40 115 -36 253 -160 290 -56 16 -68 17 -113 5z"/>
<path d="M2318 8766 c-109 -39 -165 -127 -156 -246 4 -53 17 -79 207 -401 112
-189 218 -359 235 -377 71 -76 185 -98 273 -54 103 53 157 179 121 283 -21 61
-400 693 -441 736 -63 66 -155 89 -239 59z"/>
<path d="M5500 7364 c-241 -18 -549 -86 -721 -158 -27 -11 -39 -9 -120 21
-116 44 -243 77 -398 105 -113 21 -157 23 -426 23 -315 0 -361 -4 -549 -51
-304 -75 -536 -201 -713 -387 -250 -263 -348 -606 -314 -1090 27 -381 91 -591
282 -937 177 -321 237 -459 284 -653 46 -190 56 -288 65 -642 13 -506 42 -764
120 -1070 60 -237 134 -409 256 -592 106 -160 209 -238 352 -269 181 -38 330
2 447 120 134 135 153 211 165 651 11 380 24 562 50 725 52 314 178 667 281
784 51 58 146 106 208 106 95 -1 163 -68 250 -245 124 -252 222 -641 250 -995
6 -74 10 -268 9 -430 l-3 -295 28 -82 c52 -153 158 -270 294 -324 83 -33 239
-33 336 0 150 51 284 196 408 443 178 354 268 883 269 1573 0 319 54 595 165
846 23 54 81 166 127 251 176 315 240 464 287 664 33 143 51 332 51 539 0 208
-14 329 -54 465 -140 482 -560 795 -1188 885 -105 15 -398 26 -498 19z m458
-490 c398 -57 675 -244 766 -515 41 -122 49 -203 43 -429 -9 -364 -51 -508
-249 -858 -220 -389 -322 -687 -362 -1057 -8 -77 -18 -261 -21 -410 -12 -554
-60 -888 -166 -1162 -51 -130 -170 -323 -200 -323 -20 0 -24 70 -24 400 -1
379 -7 456 -61 734 -76 397 -233 808 -379 991 -106 134 -239 225 -385 261 -96
24 -271 15 -367 -19 -315 -111 -491 -345 -646 -857 -101 -332 -131 -570 -146
-1145 -5 -181 -12 -338 -16 -347 -12 -31 -33 -20 -74 41 -105 154 -155 267
-206 466 -67 260 -91 492 -105 994 -10 355 -16 422 -56 621 -50 250 -142 486
-301 770 -162 291 -208 399 -243 570 -41 199 -43 553 -5 701 70 268 279 451
620 540 107 28 145 32 348 42 256 12 375 4 564 -39 202 -45 270 -75 677 -291
148 -79 290 -149 314 -155 110 -27 240 50 272 163 33 114 -21 229 -134 286
-28 14 -46 28 -40 30 6 2 63 8 125 12 138 11 318 5 457 -15z"/>
<path d="M8530 7271 c-14 -5 -41 -16 -59 -26 -48 -24 -673 -395 -689 -408 -8
-6 -27 -34 -43 -62 -57 -100 -29 -238 62 -305 53 -38 133 -55 191 -40 65 17
730 414 772 460 111 123 51 327 -112 376 -49 15 -83 16 -122 5z"/>
<path d="M732 7121 c-101 -35 -156 -114 -156 -221 0 -73 22 -126 71 -171 48
-45 713 -417 765 -428 246 -55 386 286 174 424 -60 39 -588 341 -661 378 -72
36 -128 41 -193 18z"/>
<path d="M145 4901 c-121 -56 -169 -198 -109 -320 32 -64 86 -106 157 -121 35
-8 182 -10 457 -8 393 3 406 4 445 25 46 24 86 65 108 108 56 111 9 253 -103
310 l-49 25 -433 0 c-400 0 -436 -2 -473 -19z"/>
<path d="M8415 4906 c-112 -49 -169 -178 -131 -294 22 -66 95 -134 160 -151
60 -15 815 -15 871 0 167 45 230 248 117 380 -68 80 -60 79 -552 78 -336 0
-442 -3 -465 -13z"/>
<path d="M1385 3041 c-23 -10 -187 -104 -365 -210 -340 -201 -386 -236 -408
-309 -26 -86 0 -194 59 -249 61 -56 163 -77 239 -49 49 17 699 403 733 434 92
86 90 250 -4 339 -67 63 -172 82 -254 44z"/>
<path d="M7912 3031 c-101 -35 -156 -114 -156 -221 0 -73 22 -127 71 -171 46
-43 703 -412 758 -426 145 -38 285 74 285 227 0 75 -37 150 -93 189 -44 29
-613 354 -682 389 -62 31 -121 35 -183 13z"/>
<path d="M2786 1709 c-56 -13 -102 -45 -135 -92 -29 -44 -352 -610 -390 -684
-48 -95 -15 -231 70 -292 94 -69 234 -57 310 26 33 35 408 692 427 747 40 116
-36 254 -160 291 -57 17 -66 17 -122 4z"/>
<path d="M6499 1643 c-96 -49 -147 -160 -120 -261 10 -40 372 -665 429 -741
54 -72 189 -103 277 -62 50 22 109 86 125 136 7 20 10 65 8 98 -4 60 -11 74
-207 407 -131 221 -219 360 -246 387 -70 69 -172 83 -266 36z"/>
<path d="M4595 1196 c-60 -28 -87 -56 -114 -116 -20 -43 -21 -64 -21 -471 l0
-427 28 -53 c85 -164 316 -169 410 -10 l27 46 0 445 c0 436 0 446 -22 485 -60
112 -193 155 -308 101z"/>
</g>
</svg>
