<?xml version="1.0" standalone="no"?>
<!DOCTYPE svg PUBLIC "-//W3C//DTD SVG 20010904//EN"
 "http://www.w3.org/TR/2001/REC-SVG-20010904/DTD/svg10.dtd">
<svg version="1.0" xmlns="http://www.w3.org/2000/svg"
 width="200.000000pt" height="200.000000pt" viewBox="0 0 200.000000 200.000000"
 preserveAspectRatio="xMidYMid meet">

<g transform="translate(0.000000,200.000000) scale(0.100000,-0.100000)"
fill="#000000" stroke="none">
<path d="M400 1855 c-18 -22 -4 -34 109 -90 56 -27 101 -52 101 -55 0 -4 -31
-51 -70 -105 l-70 -99 0 -155 0 -156 -38 -20 c-73 -39 -72 -33 -72 -546 0
-429 1 -457 18 -472 28 -26 222 -25 245 1 15 17 17 65 17 479 l0 460 -22 33
c-13 18 -38 40 -55 49 l-33 16 0 148 0 149 76 106 c43 58 79 114 82 124 3 13
-24 31 -127 82 -72 36 -135 66 -140 66 -5 0 -14 -7 -21 -15z m139 -730 c16 -8
31 -22 35 -30 3 -9 6 -131 6 -271 l0 -254 -80 0 -80 0 0 258 c1 268 2 275 45
300 27 15 41 15 74 -3z m41 -650 l0 -35 -80 0 -80 0 0 35 0 35 80 0 80 0 0
-35z m0 -185 l0 -90 -80 0 -80 0 0 90 0 90 80 0 80 0 0 -90z"/>
<path d="M1388 1858 c-50 -11 -68 -33 -45 -55 11 -11 23 -12 58 -4 112 26 181
6 200 -58 10 -35 9 -45 -11 -85 -12 -26 -43 -75 -69 -109 l-46 -62 -3 -145 -3
-146 -37 -19 c-73 -39 -72 -34 -72 -546 0 -429 1 -457 18 -472 28 -26 222 -25
245 1 15 17 17 64 17 473 0 510 1 505 -72 544 l-38 20 0 132 0 133 46 62 c67
92 84 130 84 190 0 126 -102 181 -272 146z m151 -733 c16 -8 31 -22 35 -30 3
-9 6 -131 6 -271 l0 -254 -80 0 -80 0 0 258 c1 268 2 275 45 300 27 15 41 15
74 -3z m41 -650 l0 -35 -80 0 -80 0 0 35 0 35 80 0 80 0 0 -35z m0 -185 l0
-90 -80 0 -80 0 0 90 0 90 80 0 80 0 0 -90z"/>
<path d="M920 1844 c-71 -31 -113 -97 -113 -179 0 -80 47 -147 126 -180 l37
-15 0 -138 0 -137 -38 -20 c-73 -39 -72 -33 -72 -546 0 -429 1 -457 18 -472
28 -26 222 -25 245 1 15 17 17 64 17 478 0 441 -1 460 -20 492 -11 18 -36 40
-55 49 l-35 17 0 137 0 137 55 27 c85 41 128 130 105 217 -32 119 -157 181
-270 132z m155 -64 c64 -39 80 -135 34 -194 -72 -91 -210 -64 -240 46 -14 52
2 98 47 138 43 37 108 41 159 10z m-36 -655 c16 -8 31 -22 35 -30 3 -9 6 -131
6 -271 l0 -254 -80 0 -80 0 0 258 c1 268 2 275 45 300 27 15 41 15 74 -3z m41
-650 l0 -35 -80 0 -80 0 0 35 0 35 80 0 80 0 0 -35z m0 -185 l0 -90 -80 0 -80
0 0 90 0 90 80 0 80 0 0 -90z"/>
</g>
</svg>
