<?xml version="1.0" standalone="no"?>
<!DOCTYPE svg PUBLIC "-//W3C//DTD SVG 20010904//EN"
 "http://www.w3.org/TR/2001/REC-SVG-20010904/DTD/svg10.dtd">
<svg version="1.0" xmlns="http://www.w3.org/2000/svg"
 width="899.000000pt" height="649.000000pt" viewBox="0 0 899.000000 649.000000"
 preserveAspectRatio="xMidYMid meet">

<g transform="translate(0.000000,649.000000) scale(0.100000,-0.100000)"
fill="#000000" stroke="none">
<path d="M6661 6479 c-24 -5 -71 -21 -105 -37 -193 -92 -309 -253 -350 -487
-9 -49 -19 -92 -23 -95 -5 -4 -48 -13 -96 -19 -112 -15 -201 -43 -301 -93
-104 -52 -153 -86 -238 -167 -141 -132 -232 -300 -272 -502 -5 -24 -12 -27
-107 -43 -129 -23 -226 -56 -309 -105 -267 -160 -477 -491 -512 -806 -13 -120
-5 -342 16 -440 67 -318 309 -651 506 -696 81 -19 149 17 170 90 6 20 17 115
25 212 8 97 22 199 31 225 28 86 95 203 132 234 46 38 97 47 302 54 104 4 200
13 258 25 173 36 337 137 463 285 112 131 173 254 212 426 l12 55 80 8 c331
32 607 227 751 530 57 120 97 358 110 662 10 213 -22 342 -114 464 -86 113
-231 203 -357 221 -84 11 -223 11 -284 -1z m270 -324 c28 -10 66 -35 93 -62
70 -68 80 -116 73 -323 -13 -360 -68 -547 -195 -673 -126 -124 -229 -162 -481
-181 -224 -16 -222 -14 -260 -228 -36 -198 -83 -302 -182 -400 -59 -58 -152
-116 -229 -143 -26 -9 -113 -19 -219 -26 -286 -17 -371 -31 -437 -70 -126 -76
-228 -223 -294 -421 -17 -54 -36 -98 -41 -98 -16 0 -55 97 -79 200 -19 76 -23
123 -23 230 0 166 20 249 94 399 43 87 65 118 133 186 129 131 235 175 424
175 211 1 248 32 277 235 29 203 75 297 203 417 117 110 217 148 392 148 118
0 207 14 240 38 45 33 68 97 89 255 27 195 54 254 145 320 66 47 177 56 277
22z"/>
<path d="M7511 5073 c-18 -9 -47 -35 -62 -56 -63 -86 -41 -124 267 -473 l143
-161 -107 -96 c-105 -94 -107 -96 -124 -76 -94 111 -374 410 -412 440 -38 31
-57 39 -88 39 -80 0 -138 -50 -153 -131 -13 -70 13 -109 260 -391 l164 -187
-67 -58 c-139 -122 -143 -125 -165 -105 -11 9 -101 107 -201 216 -201 222
-241 256 -295 256 -53 0 -121 -38 -143 -80 -46 -88 -23 -129 231 -420 94 -107
171 -200 171 -206 0 -23 -190 -190 -209 -182 -5 1 -69 71 -142 153 -208 234
-299 322 -342 330 -71 14 -148 -26 -172 -89 -32 -82 -1 -135 246 -420 90 -104
164 -193 164 -199 0 -6 -45 -48 -100 -94 l-99 -84 -96 99 c-411 428 -382 403
-460 382 -21 -6 -52 -21 -68 -35 -37 -31 -66 -96 -58 -128 8 -35 100 -156 255
-337 170 -198 185 -223 172 -282 -45 -201 -13 -348 106 -493 29 -35 53 -73 53
-84 0 -35 -217 -209 -350 -280 -67 -36 -333 -136 -925 -346 -1067 -379 -1229
-443 -1395 -553 -76 -50 -222 -173 -783 -662 l-315 -275 240 -3 240 -2 86 75
c414 362 720 611 810 658 110 58 483 199 1242 469 480 171 861 313 935 351
126 63 329 214 479 357 177 168 178 198 18 391 -153 184 -169 216 -137 284 26
53 449 430 1685 1500 206 179 229 195 264 195 42 0 90 -34 184 -132 180 -185
231 -301 220 -502 -8 -153 -46 -206 -392 -551 -322 -321 -1332 -1285 -1765
-1682 -187 -172 -122 -136 -1176 -664 -1029 -516 -1055 -531 -1205 -671 l-83
-78 262 0 262 0 207 109 c114 60 486 250 827 424 615 312 901 463 982 518 23
16 81 66 130 112 324 303 1141 1081 1701 1621 404 389 451 444 523 614 33 76
33 80 37 263 3 117 0 207 -7 239 -47 221 -355 596 -546 666 -39 15 -80 19
-188 19 l-138 0 -57 60 c-31 33 -122 134 -202 224 -80 90 -162 177 -184 193
-46 33 -102 37 -155 11z"/>
</g>
</svg>
